# xmcd
#
# Track frame offsets:
#	150
#	17202
#	41250
#	57478
#	75526
#	87428
#
# Disc length: 1407 seconds
#
# Revision: 0
# Processed by: cddbd v1.4PL0 Copyright (c) Steve Scherf et al.
# Submitted via: EasyCDDAExtractor 4.6.9.1
#
DISCID=41057d06
DTITLE=The Dan Lawson Band - Bill 'n Hel's Kitchen
DYEAR=2001
DGENRE=Blues
TTITLE0=Let's Ride
TTITLE1=Just Ain't Easy
TTITLE2=Play The Blues
TTITLE3=Outway Street
TTITLE4=Jo Mama
TTITLE5=Cry
EXTD=
EXTT0=
EXTT1=
EXTT2=
EXTT3=
EXTT4=
EXTT5=
PLAYORDER=
